<svg width="16" height="16" viewBox="0 0 16 16" fill="none" xmlns="http://www.w3.org/2000/svg">
<g id="Group">
<path id="Vector (Stroke)" fill-rule="evenodd" clip-rule="evenodd" d="M4 5.33329C4 4.9651 4.29848 4.66663 4.66667 4.66663H15.3333C15.7015 4.66663 16 4.9651 16 5.33329V14.6666C16 15.0348 15.7015 15.3333 15.3333 15.3333H4.66667C4.29848 15.3333 4 15.0348 4 14.6666V13.3333C4 12.9651 4.29848 12.6666 4.66667 12.6666C5.03486 12.6666 5.33333 12.9651 5.33333 13.3333V14H14.6667V5.99996H5.33333V6.66663C5.33333 7.03482 5.03486 7.33329 4.66667 7.33329C4.29848 7.33329 4 7.03482 4 6.66663V5.33329Z" fill="#222222"/>
<path id="Vector (Stroke)_2" fill-rule="evenodd" clip-rule="evenodd" d="M0 11.3333C0 10.9651 0.298477 10.6666 0.666667 10.6666H6C6.36819 10.6666 6.66667 10.9651 6.66667 11.3333C6.66667 11.7015 6.36819 12 6 12H0.666667C0.298477 12 0 11.7015 0 11.3333Z" fill="#222222"/>
<path id="Vector (Stroke)_3" fill-rule="evenodd" clip-rule="evenodd" d="M1.33333 8.66667C1.33333 8.29848 1.63181 8 1.99999 8H7.33333C7.70152 8 7.99999 8.29848 7.99999 8.66667C7.99999 9.03486 7.70152 9.33333 7.33333 9.33333H1.99999C1.63181 9.33333 1.33333 9.03486 1.33333 8.66667Z" fill="#222222"/>
<path id="Vector (Stroke)_4" fill-rule="evenodd" clip-rule="evenodd" d="M10 1.99996C9.64639 1.99996 9.30725 2.14044 9.0572 2.39048C8.80715 2.64053 8.66668 2.97967 8.66668 3.33329V5.33329C8.66668 5.70148 8.3682 5.99996 8.00001 5.99996C7.63182 5.99996 7.33334 5.70148 7.33334 5.33329V3.33329C7.33334 2.62605 7.61429 1.94777 8.11439 1.44767C8.61449 0.947577 9.29277 0.666626 10 0.666626C10.7073 0.666626 11.3855 0.947577 11.8856 1.44767C12.3857 1.94777 12.6667 2.62605 12.6667 3.33329V5.33329C12.6667 5.70148 12.3682 5.99996 12 5.99996C11.6318 5.99996 11.3333 5.70148 11.3333 5.33329V3.33329C11.3333 2.97967 11.1929 2.64053 10.9428 2.39048C10.6928 2.14044 10.3536 1.99996 10 1.99996Z" fill="#222222"/>
</g>
</svg>
