<svg width="16" height="16" viewBox="0 0 16 16" fill="none" xmlns="http://www.w3.org/2000/svg">
<g id="Group">
<g id="pencil">
<path id="Path" d="M10.0234 2.64294L13.3567 5.97628L12.4139 6.91909L9.0806 3.58575L10.0234 2.64294Z" fill="#808080"/>
<path id="Path_2" d="M10.4713 1.2522L1.37754 10.346L0.522308 15.4774L5.65368 14.6221L14.7474 5.52841C15.5283 4.74734 15.5283 3.48134 14.7475 2.70034L13.2993 1.2522C12.5183 0.471435 11.2523 0.471435 10.4713 1.2522ZM12.3566 2.19508L13.8046 3.64308L13.86 3.70586C14.0632 3.96731 14.0448 4.34537 13.8045 4.58567L5.01201 13.3773L2.14401 13.8553L2.62201 10.9866L11.4141 2.19508C11.6543 1.95491 12.0324 1.93644 12.2939 2.13971L12.3566 2.19508Z" fill="#808080"/>
</g>
</g>
</svg>
