<svg width="16" height="16" viewBox="0 0 16 16" fill="none" xmlns="http://www.w3.org/2000/svg">
<g id="Group">
<path id="Vector (Stroke)" fill-rule="evenodd" clip-rule="evenodd" d="M4.31099 0.710799C4.60736 0.632453 4.92202 0.663194 5.19763 0.797419C5.47324 0.931645 5.69146 1.16042 5.81251 1.44206L7.27969 4.86192C7.37942 5.09518 7.40751 5.35284 7.36038 5.60211C7.31325 5.85138 7.19304 6.081 7.01504 6.26176L5.98081 7.31119C6.33884 7.84541 6.74291 8.34769 7.18857 8.81221C7.65196 9.2582 8.15361 9.66213 8.68756 10.0195L9.73718 8.98405C9.91861 8.80541 10.1497 8.68461 10.4 8.63792C10.6498 8.59133 10.9078 8.62028 11.1411 8.72104C11.1415 8.72124 11.142 8.72143 11.1424 8.72162L14.56 10.1869C14.8418 10.308 15.0705 10.5264 15.2046 10.8022C15.3385 11.0777 15.369 11.3922 15.2906 11.6882M15.2903 11.6893L14.5811 14.3744C14.5809 14.3753 14.5806 14.3762 14.5804 14.3771C14.5078 14.6576 14.3419 14.905 14.11 15.0787C13.8773 15.253 13.5922 15.3427 13.3016 15.333L13.2877 15.3323C9.99778 15.1527 6.88494 13.7849 4.5276 11.483L4.51635 11.4717C2.21518 9.11481 0.84763 6.00282 0.667692 2.71374C0.667377 2.70799 0.667137 2.70224 0.666971 2.69648C0.658647 2.40689 0.748859 2.12305 0.922846 1.89141C1.09645 1.66028 1.34319 1.49477 1.62286 1.42181L4.31099 0.710799M4.60613 2.01192L2.00245 2.7006C2.17776 5.64252 3.40652 8.42368 5.46482 10.5346C7.57631 12.5937 10.3586 13.8228 13.3016 13.9976L13.9895 11.393L10.6467 9.95978L9.24621 11.3413C9.02925 11.5553 8.69479 11.5949 8.4338 11.4376C7.64664 10.963 6.91539 10.4013 6.25385 9.76314C6.24784 9.75734 6.24194 9.75143 6.23615 9.74541C5.59943 9.08323 5.03823 8.35238 4.56289 7.56629C4.40509 7.30534 4.44447 6.97058 4.65853 6.75337L6.03925 5.35237L4.60613 2.01192Z" fill="white"/>
</g>
</svg>
